PathFileType	4	(X/Y/Z)	Patient4_TMGait_0pt4_02_left_30.trc.trc
DataRate	CameraRate	NumFrames	NumMarkers	Units	OrigDataRate	OrigDataStartFrame	OrigNumFrames
76.923076923077	76.923076923077	4	33	mm	76.923076923077	53	       141
Frame#	Time	Sacral			L.Shoulder			Chest			R.Shoulder			Neck			R.ASIS			L.ASIS			R.Thigh.Superior			R.Thigh.Lateral			R.Thigh.Inferior			R.Patella			L.Thigh.Superior			L.Thigh.Lateral			L.Thigh.Inferior			L.Patella			L.Shank.Superior			L.Shank.Lateral			L.Shank.Inferior			R.Shank.Superior			R.Shank.Lateral			R.Shank.Inferior			R.Heel			R.Midfoot.Superior			R.Midfoot.Lateral			R.Toe			L.Heel			L.Midfoot.Lateral			L.Midfoot.Superior			L.Toe			L.Elbow			L.Wrist			R.Elbow			R.Wrist			
		X1	Y1	Z1	X2	Y2	Z2	X3	Y3	Z3	X4	Y4	Z4	X5	Y5	Z5	X6	Y6	Z6	X7	Y7	Z7	X8	Y8	Z8	X9	Y9	Z9	X10	Y10	Z10	X11	Y11	Z11	X12	Y12	Z12	X13	Y13	Z13	X14	Y14	Z14	X15	Y15	Z15	X16	Y16	Z16	X17	Y17	Z17	X18	Y18	Z18	X19	Y19	Z19	X20	Y20	Z20	X21	Y21	Z21	X22	Y22	Z22	X23	Y23	Z23	X24	Y24	Z24	X25	Y25	Z25	X26	Y26	Z26	X27	Y27	Z27	X28	Y28	Z28	X29	Y29	Z29	X30	Y30	Z30	X31	Y31	Z31	X32	Y32	Z32	X33	Y33	Z33	

53	40.916000000000	857.032247137161	1004.889998309150	430.365919514233	1043.467500552955	1434.728173559947	238.984843357732	1140.694696922647	1369.117992244182	404.895123317969	1050.387522800495	1442.960805289581	575.445499075067	1022.379733222471	1498.085037978244	394.497879843015	1088.379455954560	951.332096221221	547.126428377264	1073.155062612364	965.929696916072	273.256652786877	1177.901024299677	784.800364468380	514.009345280217	1147.666672476659	662.335196839430	590.582962077126	1235.949715566271	626.799327493213	509.089696241425	1262.196283983315	517.275416147702	532.458856840217	1126.472629541687	753.512614385901	301.710295164889	1039.413993114584	636.776437664661	243.395542303192	1124.191927015808	560.733457905099	307.066058635362	1124.230544509802	491.578389428243	317.918008185983	1098.411637639465	418.712079245377	309.598405226209	1009.475131089531	303.869892671357	259.563993017429	1059.989302797695	193.390029276118	331.624247440624	1192.308136408487	436.819667839510	543.906631251718	1077.472825881256	388.202550570595	610.137291412012	1070.305733355130	277.323228553891	563.745390187632	875.966009314300	204.872274441923	546.156499877574	1047.581548729320	149.957222364240	579.680434901809	939.509021785848	145.178522203564	616.106902401347	1115.278519153334	36.678666695712	599.292942132228	932.116965403753	38.657799845216	376.412231158292	1003.151584063169	35.162518360725	292.960422275763	1086.700262919320	96.886769817403	318.281247167002	1214.609579260537	46.217756767386	284.687629218781	1064.624429698547	1091.242676473568	100.026206726771	1271.208223970728	928.274671957933	88.778023475561	985.367976135951	1098.782606859630	690.701265342012	1037.371330881883	842.236081237120	699.143156911279	
54	40.929000000000	856.013587818981	1005.369014655529	428.638602961559	1045.276988712323	1435.658468825404	239.041235439237	1140.579103519519	1369.357004578684	405.748389401612	1048.654124467268	1442.954502555952	575.511543805785	1022.682049581587	1498.556114745073	394.654162122028	1086.665724293824	952.250417277302	546.868812995317	1073.052560714020	966.134159151329	272.909629368330	1177.430439563540	786.900480530976	514.297586168121	1147.951660677165	664.363232200549	591.226920547153	1236.401914242315	629.249962369391	509.823800820725	1264.067865084935	521.153428947929	533.502655379442	1124.719821425422	753.014374912322	302.000171960720	1037.043446548974	636.798573303431	243.026197207307	1120.926886759424	560.189988402458	307.044172163499	1120.442377575003	491.093786336617	317.898503650039	1094.398980811522	418.372574694029	309.527879055467	1005.183934423580	303.793194963361	259.380811889874	1055.024878886097	193.172060246218	331.614994143858	1197.271939998385	438.957785629310	544.932449560901	1085.018789961212	385.104584363405	611.139648481656	1083.085138177053	274.033910810303	564.742329768035	892.517772875545	192.025488461199	547.228051008949	1066.705436145834	146.156839586320	580.867981300274	959.013815521797	135.578632358502	617.106149067251	1139.892814479023	36.578632489813	599.914115044771	926.836451793471	38.658178912635	376.389610970748	997.904591258942	35.154717202948	292.931025899595	1081.466655573141	96.842203870929	318.282115015164	1209.389727476331	46.140700800540	284.664575867892	1069.997063791505	1093.524734322322	98.138887750171	1282.786622021587	938.797668116083	89.178933886741	975.851378596469	1100.336586565945	689.583548265369	1018.414034792557	842.172001560230	701.107340069955	
55	40.942000000000	855.020585567440	1005.822043616142	426.998663123107	1047.197457873482	1436.460715141869	239.227732178865	1140.563780867843	1369.463735772579	406.712739375368	1047.082594023893	1442.905508228147	575.668508056380	1023.074618923921	1498.934329571746	394.907842471049	1084.938978510566	952.988606193778	546.763621311127	1073.025058766780	966.309176534424	272.682519112015	1176.546869782471	788.392371055439	514.906983518738	1147.319010007022	665.846965775742	592.132386798124	1235.894810288235	630.900165262152	510.901809850468	1264.709217308991	524.509173485416	534.824799308605	1122.920863174434	752.505103984971	302.475429374373	1034.682046840486	636.811713485917	242.690416699454	1117.611402847434	559.646743509589	307.082457460753	1116.586796895376	490.608842864058	317.898291381124	1090.343368662874	418.022127028491	309.465796083821	1000.874845131346	303.698068230568	259.189674001609	1050.036829785562	192.943169870703	331.604676809204	1201.480115471072	440.676452954258	546.214849985396	1092.467163301424	381.123912784112	612.472969596496	1096.378319367958	270.158437648973	565.996785934872	910.625987352538	177.761941724650	548.519479650637	1087.064440507826	141.986767688378	582.307449317629	980.159597855504	125.201662028453	618.411936981456	1166.123393677712	36.928787045621	601.062052049435	921.569862327406	38.654084745910	376.367821044890	992.659699189644	35.139363199431	292.902948244394	1076.236079593283	96.791408881661	318.287523322225	1204.172426629680	46.059537567211	284.647220346923	1075.240274532209	1095.757748095086	96.366332572914	1293.819649073319	949.488988125122	89.787239575365	966.729402832115	1102.087702850807	688.771600191035	1000.794614806560	842.856813286201	702.659012789458	
56	40.955000000000	854.077779100787	1006.240830092438	425.455256759378	1049.185699692959	1437.112127844587	239.546275373963	1140.642358478887	1369.434957290516	407.777739655134	1045.684743465805	1442.812475525369	575.920697486590	1023.550479245182	1499.209881252306	395.257259993465	1083.225699010879	953.530186624167	546.819187345509	1073.083171093023	966.445701141850	272.578865761715	1175.211404044425	789.219972538857	515.791744512572	1145.740158627761	666.751796647087	593.258586749977	1234.386770439583	631.714319722225	512.259850367617	1264.113788641861	527.292243981137	536.333762710571	1121.115961852717	751.978767637304	303.098290490226	1032.351800008399	636.812242592214	242.395025402014	1114.280403582982	559.100118218275	307.176684779816	1112.702638590655	490.121250371624	317.922456294143	1086.277987819710	417.657379476846	309.417341386839	996.571697295501	303.587802564083	258.994773679936	1045.047806297194	192.701169702427	331.592062591123	1204.894063069434	442.009688528136	547.695143505010	1099.829162518498	376.457233283496	614.121229971387	1110.081772213375	265.968936396877	567.487461799201	930.281005698981	162.587099655157	550.072254304973	1108.460432649524	137.811455922795	583.951317556144	1002.844756524107	114.523817606206	620.024687471947	1193.600902781415	38.088788585080	602.641352031048	916.320975906842	38.645762119512	376.343881448791	987.419352999180	35.117190444480	292.875486664373	1071.012778268369	96.733489501340	318.296948806230	1198.960985192419	45.965544274786	284.634940944093	1080.382863740470	1097.901609290551	94.730176047267	1304.280894265343	960.217373520396	90.593757748428	958.028368772211	1104.005287232111	688.255034262329	984.540747046118	844.122499707691	703.838681402839	
